{
  "accessors": [
    {
      "bufferView": 2,
      "componentType": 5126,
      "count": 12611,
      "max": [
        0.41565999388694763,
        0.4896099865436554,
        0.4763199985027313
      ],
      "min": [
        -0.41565999388694763,
        -0.5850600004196167,
        -0.24361999332904816
      ],
      "type": "VEC3"
    },
    {
      "bufferView": 2,
      "byteOffset": 151332,
      "componentType": 5126,
      "count": 12611,
      "max": [
        1.0,
        1.0,
        1.0
      ],
      "min": [
        -1.0,
        -1.0,
        -1.0
      ],
      "type": "VEC3"
    },
    {
      "bufferView": 1,
      "componentType": 5126,
      "count": 12611,
      "max": [
        10.499719619750977,
        10.498929977416992
      ],
      "min": [
        -9.5,
        -9.5
      ],
      "type": "VEC2"
    },
    {
      "bufferView": 0,
      "componentType": 5125,
      "count": 24816,
      "type": "SCALAR"
    },
    {
      "bufferView": 2,
      "byteOffset": 302664,
      "componentType": 5126,
      "count": 6308,
      "max": [
        0.2425999939441681,
        0.4806700050830841,
        0.27882999181747437
      ],
      "min": [
        -0.2425999939441681,
        -0.6424800157546997,
        -0.20520000159740448
      ],
      "type": "VEC3"
    },
    {
      "bufferView": 2,
      "byteOffset": 378360,
      "componentType": 5126,
      "count": 6308,
      "max": [
        1.0,
        1.0,
        1.0
      ],
      "min": [
        -1.0,
        -1.0,
        -1.0
      ],
      "type": "VEC3"
    },
    {
      "bufferView": 1,
      "byteOffset": 100888,
      "componentType": 5126,
      "count": 6308,
      "max": [
        10.5,
        10.5
      ],
      "min": [
        -9.5,
        -9.5
      ],
      "type": "VEC2"
    },
    {
      "bufferView": 0,
      "byteOffset": 99264,
      "componentType": 5125,
      "count": 12084,
      "type": "SCALAR"
    },
    {
      "bufferView": 2,
      "byteOffset": 454056,
      "componentType": 5126,
      "count": 154,
      "max": [
        0.10520999878644943,
        0.06825000047683716,
        0.10954999923706055
      ],
      "min": [
        -0.10520999878644943,
        -0.13526000082492828,
        -0.07811000198125839
      ],
      "type": "VEC3"
    },
    {
      "bufferView": 2,
      "byteOffset": 455904,
      "componentType": 5126,
      "count": 154,
      "max": [
        0.9687374830245972,
        -0.19861356914043427,
        0.9796104431152344
      ],
      "min": [
        -0.9687374830245972,
        -1.0,
        -0.5135779976844788
      ],
      "type": "VEC3"
    },
    {
      "bufferView": 1,
      "byteOffset": 151352,
      "componentType": 5126,
      "count": 154,
      "max": [
        1.0,
        1.0
      ],
      "min": [
        0.0,
        0.0
      ],
      "type": "VEC2"
    },
    {
      "bufferView": 0,
      "byteOffset": 147600,
      "componentType": 5125,
      "count": 354,
      "type": "SCALAR"
    },
    {
      "bufferView": 2,
      "byteOffset": 457752,
      "componentType": 5126,
      "count": 120,
      "max": [
        0.12789000570774078,
        0.49627000093460083,
        0.07889000326395035
      ],
      "min": [
        -0.1276800036430359,
        0.4896099865436554,
        -0.1456100046634674
      ],
      "type": "VEC3"
    },
    {
      "bufferView": 2,
      "byteOffset": 459192,
      "componentType": 5126,
      "count": 120,
      "max": [
        0.9914478659629822,
        1.0,
        0.9914478659629822
      ],
      "min": [
        -0.9914478659629822,
        0.0,
        -0.9914478659629822
      ],
      "type": "VEC3"
    },
    {
      "bufferView": 1,
      "byteOffset": 152584,
      "componentType": 5126,
      "count": 120,
      "max": [
        0.0,
        0.0
      ],
      "min": [
        0.0,
        0.0
      ],
      "type": "VEC2"
    },
    {
      "bufferView": 0,
      "byteOffset": 149016,
      "componentType": 5125,
      "count": 198,
      "type": "SCALAR"
    },
    {
      "bufferView": 2,
      "byteOffset": 460632,
      "componentType": 5126,
      "count": 96,
      "max": [
        0.22586999833583832,
        0.411080002784729,
        0.2601200044155121
      ],
      "min": [
        -0.22586999833583832,
        -0.6133099794387817,
        -0.1354999989271164
      ],
      "type": "VEC3"
    },
    {
      "bufferView": 2,
      "byteOffset": 461784,
      "componentType": 5126,
      "count": 96,
      "max": [
        1.0,
        0.0,
        0.8660327196121216
      ],
      "min": [
        -1.0,
        -1.0,
        -0.8660327196121216
      ],
      "type": "VEC3"
    },
    {
      "bufferView": 1,
      "byteOffset": 153544,
      "componentType": 5126,
      "count": 96,
      "max": [
        30.77372932434082,
        56.940738677978516
      ],
      "min": [
        -0.817799985408783,
        1.2289899587631226
      ],
      "type": "VEC2"
    },
    {
      "bufferView": 0,
      "byteOffset": 149808,
      "componentType": 5125,
      "count": 198,
      "type": "SCALAR"
    },
    {
      "bufferView": 2,
      "byteOffset": 462936,
      "componentType": 5126,
      "count": 54,
      "max": [
        0.39906999468803406,
        0.3913800120353699,
        0.45555999875068665
      ],
      "min": [
        -0.39906999468803406,
        -0.44668999314308167,
        -0.2356400042772293
      ],
      "type": "VEC3"
    },
    {
      "bufferView": 2,
      "byteOffset": 463584,
      "componentType": 5126,
      "count": 54,
      "max": [
        1.0,
        0.0,
        0.8660327196121216
      ],
      "min": [
        -1.0,
        0.0,
        -0.8660327196121216
      ],
      "type": "VEC3"
    },
    {
      "bufferView": 1,
      "byteOffset": 154312,
      "componentType": 5126,
      "count": 54,
      "max": [
        6.585140228271484,
        6.585140228271484
      ],
      "min": [
        -5.585140228271484,
        -5.585140228271484
      ],
      "type": "VEC2"
    },
    {
      "bufferView": 0,
      "byteOffset": 150600,
      "componentType": 5125,
      "count": 90,
      "type": "SCALAR"
    }
  ],
  "asset": {
    "extras": {
      "author": "Daniel (https://sketchfab.com/DanielAndersson)",
      "license": "CC-BY-4.0 (http://creativecommons.org/licenses/by/4.0/)",
      "source": "https://sketchfab.com/3d-models/star-wars-tieph-phantom-3fbf9b38b2a24db8b6fcc9f7a67dbf03",
      "title": "Star Wars: TIE/ph Phantom"
    },
    "generator": "Sketchfab-15.10.0",
    "version": "2.0"
  },
  "bufferViews": [
    {
      "buffer": 0,
      "byteLength": 150960,
      "name": "floatBufferViews",
      "target": 34963
    },
    {
      "buffer": 0,
      "byteLength": 154744,
      "byteOffset": 150960,
      "byteStride": 8,
      "name": "floatBufferViews",
      "target": 34962
    },
    {
      "buffer": 0,
      "byteLength": 464232,
      "byteOffset": 305704,
      "byteStride": 12,
      "name": "floatBufferViews",
      "target": 34962
    }
  ],
  "buffers": [
    {
      "byteLength": 769936,
      "uri": "scene.bin"
    }
  ],
  "extensionsUsed": [
    "KHR_materials_specular",
    "KHR_materials_emissive_strength"
  ],
  "images": [
    {
      "uri": "textures/ScratchedMetal_baseColor.jpeg"
    },
    {
      "uri": "textures/ScratchedMetal_metallicRoughness.png"
    },
    {
      "uri": "textures/TieWingMesh_baseColor.jpeg"
    },
    {
      "uri": "textures/TieWingMesh_metallicRoughness.png"
    }
  ],
  "materials": [
    {
      "doubleSided": true,
      "name": "ScratchedMetal",
      "pbrMetallicRoughness": {
        "baseColorTexture": {
          "index": 0
        },
        "metallicRoughnessTexture": {
          "index": 1
        },
        "roughnessFactor": 0.6
      }
    },
    {
      "doubleSided": true,
      "extensions": {
        "KHR_materials_specular": {
          "specularColorFactor": [
            1.0,
            1.0,
            1.0
          ],
          "specularFactor": 0.07
        }
      },
      "name": "ScratchedMetalDark",
      "pbrMetallicRoughness": {
        "baseColorFactor": [
          0.1,
          0.1,
          0.1,
          1.0
        ],
        "baseColorTexture": {
          "index": 0
        },
        "metallicRoughnessTexture": {
          "index": 1
        },
        "roughnessFactor": 0.6
      }
    },
    {
      "doubleSided": true,
      "name": "ReflectiveGlass",
      "pbrMetallicRoughness": {
        "baseColorFactor": [
          0.0020548508,
          0.0001363839000000001,
          0.0001363839000000001,
          1.0
        ],
        "metallicFactor": 0.0,
        "roughnessFactor": 0.3
      }
    },
    {
      "doubleSided": true,
      "emissiveFactor": [
        0.8000000714999995,
        0.010434423599999994,
        0.031041925800000057
      ],
      "extensions": {
        "KHR_materials_emissive_strength": {
          "emissiveStrength": 10.0
        }
      },
      "name": "RedEngineGlow",
      "pbrMetallicRoughness": {
        "baseColorFactor": [
          0.9602083827,
          0.0,
          0.0,
          1.0
        ],
        "metallicFactor": 0.0,
        "roughnessFactor": 0.6
      }
    },
    {
      "doubleSided": true,
      "name": "Black",
      "pbrMetallicRoughness": {
        "baseColorFactor": [
          0.0,
          0.0,
          0.0,
          1.0
        ],
        "metallicFactor": 0.0,
        "roughnessFactor": 0.0
      }
    },
    {
      "doubleSided": true,
      "extensions": {
        "KHR_materials_specular": {
          "specularColorFactor": [
            1.0,
            1.0,
            1.0
          ],
          "specularFactor": 0.1
        }
      },
      "name": "TieWingMesh",
      "pbrMetallicRoughness": {
        "baseColorTexture": {
          "index": 2
        },
        "metallicRoughnessTexture": {
          "index": 3
        },
        "roughnessFactor": 0.8
      }
    }
  ],
  "meshes": [
    {
      "name": "TieDefender_0",
      "primitives": [
        {
          "attributes": {
            "NORMAL": 1,
            "POSITION": 0,
            "TEXCOORD_0": 2
          },
          "indices": 3,
          "material": 0,
          "mode": 4
        }
      ]
    },
    {
      "name": "TieDefender_1",
      "primitives": [
        {
          "attributes": {
            "NORMAL": 5,
            "POSITION": 4,
            "TEXCOORD_0": 6
          },
          "indices": 7,
          "material": 1,
          "mode": 4
        }
      ]
    },
    {
      "name": "TieDefender_2",
      "primitives": [
        {
          "attributes": {
            "NORMAL": 9,
            "POSITION": 8,
            "TEXCOORD_0": 10
          },
          "indices": 11,
          "material": 2,
          "mode": 4
        }
      ]
    },
    {
      "name": "TieDefender_3",
      "primitives": [
        {
          "attributes": {
            "NORMAL": 13,
            "POSITION": 12,
            "TEXCOORD_0": 14
          },
          "indices": 15,
          "material": 3,
          "mode": 4
        }
      ]
    },
    {
      "name": "TieDefender_4",
      "primitives": [
        {
          "attributes": {
            "NORMAL": 17,
            "POSITION": 16,
            "TEXCOORD_0": 18
          },
          "indices": 19,
          "material": 4,
          "mode": 4
        }
      ]
    },
    {
      "name": "TieDefender_5",
      "primitives": [
        {
          "attributes": {
            "NORMAL": 21,
            "POSITION": 20,
            "TEXCOORD_0": 22
          },
          "indices": 23,
          "material": 5,
          "mode": 4
        }
      ]
    }
  ],
  "nodes": [
    {
      "children": [
        1
      ],
      "matrix": [
        10.0,
        0.0,
        0.0,
        0.0,
        0.0,
        2.220446049250313e-15,
        -10.0,
        0.0,
        0.0,
        10.0,
        2.220446049250313e-15,
        0.0,
        0.0,
        0.0,
        0.0,
        1.0
      ],
      "name": "Sketchfab_model"
    },
    {
      "children": [
        2
      ],
      "name": "Root"
    },
    {
      "children": [
        3,
        4,
        5,
        6,
        7,
        8
      ],
      "name": "TieDefender"
    },
    {
      "mesh": 0,
      "name": "TieDefender_0"
    },
    {
      "mesh": 1,
      "name": "TieDefender_1"
    },
    {
      "mesh": 2,
      "name": "TieDefender_2"
    },
    {
      "mesh": 3,
      "name": "TieDefender_3"
    },
    {
      "mesh": 4,
      "name": "TieDefender_4"
    },
    {
      "mesh": 5,
      "name": "TieDefender_5"
    }
  ],
  "samplers": [
    {
      "magFilter": 9729,
      "minFilter": 9987,
      "wrapS": 10497,
      "wrapT": 10497
    }
  ],
  "scene": 0,
  "scenes": [
    {
      "name": "Sketchfab_Scene",
      "nodes": [
        0
      ]
    }
  ],
  "textures": [
    {
      "sampler": 0,
      "source": 0
    },
    {
      "sampler": 0,
      "source": 1
    },
    {
      "sampler": 0,
      "source": 2
    },
    {
      "sampler": 0,
      "source": 3
    }
  ]
}
