{
  "accessors": [
    {
      "bufferView": 2,
      "componentType": 5126,
      "count": 367,
      "max": [
        -4598.22998046875,
        35768.0,
        87.0020980834961
      ],
      "min": [
        -16211.599609375,
        24154.19921875,
        -11.423500061035156
      ],
      "type": "VEC3"
    },
    {
      "bufferView": 2,
      "byteOffset": 4404,
      "componentType": 5126,
      "count": 367,
      "max": [
        0.999849259853363,
        0.9999690055847168,
        4.027111515370052e-07
      ],
      "min": [
        -0.9999836683273315,
        -0.9999722242355347,
        -4.068938778800657e-06
      ],
      "type": "VEC3"
    },
    {
      "bufferView": 1,
      "componentType": 5126,
      "count": 367,
      "max": [
        20.0,
        0.9995009899139404
      ],
      "min": [
        -5.960459930065554e-06,
        0.0004994610208086669
      ],
      "type": "VEC2"
    },
    {
      "bufferView": 0,
      "componentType": 5125,
      "count": 1062,
      "type": "SCALAR"
    },
    {
      "bufferView": 2,
      "byteOffset": 8808,
      "componentType": 5126,
      "count": 1081,
      "max": [
        -4499.22021484375,
        35866.3984375,
        -11.422900199890137
      ],
      "min": [
        -16309.7998046875,
        24055.80078125,
        -5854.490234375
      ],
      "type": "VEC3"
    },
    {
      "bufferView": 2,
      "byteOffset": 21780,
      "componentType": 5126,
      "count": 1081,
      "max": [
        0.9988110065460205,
        0.9995959997177124,
        -0.01734199933707714
      ],
      "min": [
        -0.9987346529960632,
        -0.9995737671852112,
        -0.9976675510406494
      ],
      "type": "VEC3"
    },
    {
      "bufferView": 1,
      "byteOffset": 2936,
      "componentType": 5126,
      "count": 1081,
      "max": [
        1.0,
        0.49734699726104736
      ],
      "min": [
        -0.13030199706554413,
        0.021301699802279472
      ],
      "type": "VEC2"
    },
    {
      "bufferView": 0,
      "byteOffset": 4248,
      "componentType": 5125,
      "count": 5997,
      "type": "SCALAR"
    },
    {
      "bufferView": 2,
      "byteOffset": 34752,
      "componentType": 5126,
      "count": 1212,
      "max": [
        -4499.22021484375,
        35866.3984375,
        5930.06982421875
      ],
      "min": [
        -16309.7998046875,
        24055.80078125,
        87.00150299072266
      ],
      "type": "VEC3"
    },
    {
      "bufferView": 2,
      "byteOffset": 49296,
      "componentType": 5126,
      "count": 1212,
      "max": [
        0.9994427561759949,
        0.9995959997177124,
        0.9976675510406494
      ],
      "min": [
        -0.9987346529960632,
        -0.9995737671852112,
        0.01734199933707714
      ],
      "type": "VEC3"
    },
    {
      "bufferView": 1,
      "byteOffset": 11584,
      "componentType": 5126,
      "count": 1212,
      "max": [
        1.0,
        0.9786980152130127
      ],
      "min": [
        -0.13030199706554413,
        0.5026530027389526
      ],
      "type": "VEC2"
    },
    {
      "bufferView": 0,
      "byteOffset": 28236,
      "componentType": 5125,
      "count": 6453,
      "type": "SCALAR"
    },
    {
      "bufferView": 2,
      "byteOffset": 63840,
      "componentType": 5126,
      "count": 4080,
      "max": [
        -4499.02001953125,
        35866.6015625,
        3120.64990234375
      ],
      "min": [
        -16310.0,
        24055.599609375,
        -11.423500061035156
      ],
      "type": "VEC3"
    },
    {
      "bufferView": 2,
      "byteOffset": 112800,
      "componentType": 5126,
      "count": 4080,
      "max": [
        0.9991273283958435,
        0.9817905426025391,
        1.0
      ],
      "min": [
        -0.48916780948638916,
        -0.9817907810211182,
        -1.0
      ],
      "type": "VEC3"
    },
    {
      "bufferView": 1,
      "byteOffset": 21280,
      "componentType": 5126,
      "count": 4080,
      "max": [
        9478.169921875,
        6021.91015625
      ],
      "min": [
        -9478.169921875,
        -5789.08984375
      ],
      "type": "VEC2"
    },
    {
      "bufferView": 0,
      "byteOffset": 54048,
      "componentType": 5125,
      "count": 7170,
      "type": "SCALAR"
    },
    {
      "bufferView": 2,
      "byteOffset": 161760,
      "componentType": 5126,
      "count": 359,
      "max": [
        -4502.64990234375,
        31279.0,
        3075.860107421875
      ],
      "min": [
        -5316.990234375,
        28643.19921875,
        569.5590209960938
      ],
      "type": "VEC3"
    },
    {
      "bufferView": 2,
      "byteOffset": 166068,
      "componentType": 5126,
      "count": 359,
      "max": [
        0.9931323528289795,
        0.1957080364227295,
        0.4891650080680847
      ],
      "min": [
        0.8721815347671509,
        -0.1957099288702011,
        0.11691506952047348
      ],
      "type": "VEC3"
    },
    {
      "bufferView": 1,
      "byteOffset": 53920,
      "componentType": 5126,
      "count": 359,
      "max": [
        1.9757299423217773,
        1.0
      ],
      "min": [
        -0.024676300585269928,
        -4.973800166760238e-14
      ],
      "type": "VEC2"
    },
    {
      "bufferView": 0,
      "byteOffset": 82728,
      "componentType": 5125,
      "count": 810,
      "type": "SCALAR"
    },
    {
      "bufferView": 2,
      "byteOffset": 170376,
      "componentType": 5126,
      "count": 662,
      "max": [
        -4499.22021484375,
        31234.099609375,
        5930.06982421875
      ],
      "min": [
        -10683.900390625,
        28768.69921875,
        -5854.490234375
      ],
      "type": "VEC3"
    },
    {
      "bufferView": 2,
      "byteOffset": 178320,
      "componentType": 5126,
      "count": 662,
      "max": [
        0.9994427561759949,
        0.2252679318189621,
        0.9976675510406494
      ],
      "min": [
        -0.048315178602933884,
        -0.21908296644687653,
        -0.9976675510406494
      ],
      "type": "VEC3"
    },
    {
      "bufferView": 1,
      "byteOffset": 56792,
      "componentType": 5126,
      "count": 662,
      "max": [
        3859.320068359375,
        841.2020263671875
      ],
      "min": [
        -3864.3798828125,
        -678.0819702148438
      ],
      "type": "VEC2"
    },
    {
      "bufferView": 0,
      "byteOffset": 85968,
      "componentType": 5125,
      "count": 1428,
      "type": "SCALAR"
    }
  ],
  "asset": {
    "extras": {
      "author": "albertomarun (https://sketchfab.com/albertomarun)",
      "license": "CC-BY-4.0 (http://creativecommons.org/licenses/by/4.0/)",
      "source": "https://sketchfab.com/3d-models/star-wars-estrella-muerte-3c1a559bbff14ad9b47449a7b49fa2c6",
      "title": "Star Wars - Estrella Muerte"
    },
    "generator": "Sketchfab-12.65.0",
    "version": "2.0"
  },
  "bufferViews": [
    {
      "buffer": 0,
      "byteLength": 91680,
      "name": "floatBufferViews",
      "target": 34963
    },
    {
      "buffer": 0,
      "byteLength": 62088,
      "byteOffset": 91680,
      "byteStride": 8,
      "name": "floatBufferViews",
      "target": 34962
    },
    {
      "buffer": 0,
      "byteLength": 186264,
      "byteOffset": 153768,
      "byteStride": 12,
      "name": "floatBufferViews",
      "target": 34962
    }
  ],
  "buffers": [
    {
      "byteLength": 340032,
      "uri": "scene.bin"
    }
  ],
  "images": [
    {
      "uri": "textures/M_1___Default1_baseColor.jpeg"
    },
    {
      "uri": "textures/M_3___Default1_baseColor.jpeg"
    },
    {
      "uri": "textures/M_7___Default1_baseColor.jpeg"
    },
    {
      "uri": "textures/M_8___Default1_baseColor.jpeg"
    }
  ],
  "materials": [
    {
      "doubleSided": true,
      "name": "M_1___Default1",
      "pbrMetallicRoughness": {
        "baseColorTexture": {
          "index": 0
        },
        "metallicFactor": 0.0,
        "roughnessFactor": 0.6
      }
    },
    {
      "doubleSided": true,
      "name": "M_2___Default1",
      "pbrMetallicRoughness": {
        "baseColorFactor": [
          0.584314,
          0.584314,
          0.584314,
          1.0
        ],
        "metallicFactor": 0.0,
        "roughnessFactor": 0.6
      }
    },
    {
      "doubleSided": true,
      "name": "M_3___Default1",
      "pbrMetallicRoughness": {
        "baseColorTexture": {
          "index": 1
        },
        "metallicFactor": 0.0,
        "roughnessFactor": 0.6
      }
    },
    {
      "doubleSided": true,
      "name": "M_7___Default1",
      "pbrMetallicRoughness": {
        "baseColorTexture": {
          "index": 2
        },
        "metallicFactor": 0.0,
        "roughnessFactor": 0.6
      }
    },
    {
      "doubleSided": true,
      "name": "M_8___Default1",
      "pbrMetallicRoughness": {
        "baseColorTexture": {
          "index": 3
        },
        "metallicFactor": 0.0,
        "roughnessFactor": 0.6
      }
    }
  ],
  "meshes": [
    {
      "name": "Object_0",
      "primitives": [
        {
          "attributes": {
            "NORMAL": 1,
            "POSITION": 0,
            "TEXCOORD_0": 2
          },
          "indices": 3,
          "material": 2,
          "mode": 4
        }
      ]
    },
    {
      "name": "Object_1",
      "primitives": [
        {
          "attributes": {
            "NORMAL": 5,
            "POSITION": 4,
            "TEXCOORD_0": 6
          },
          "indices": 7,
          "material": 0,
          "mode": 4
        }
      ]
    },
    {
      "name": "Object_2",
      "primitives": [
        {
          "attributes": {
            "NORMAL": 9,
            "POSITION": 8,
            "TEXCOORD_0": 10
          },
          "indices": 11,
          "material": 0,
          "mode": 4
        }
      ]
    },
    {
      "name": "Object_3",
      "primitives": [
        {
          "attributes": {
            "NORMAL": 13,
            "POSITION": 12,
            "TEXCOORD_0": 14
          },
          "indices": 15,
          "material": 1,
          "mode": 4
        }
      ]
    },
    {
      "name": "Object_4",
      "primitives": [
        {
          "attributes": {
            "NORMAL": 17,
            "POSITION": 16,
            "TEXCOORD_0": 18
          },
          "indices": 19,
          "material": 3,
          "mode": 4
        }
      ]
    },
    {
      "name": "Object_5",
      "primitives": [
        {
          "attributes": {
            "NORMAL": 21,
            "POSITION": 20,
            "TEXCOORD_0": 22
          },
          "indices": 23,
          "material": 4,
          "mode": 4
        }
      ]
    }
  ],
  "nodes": [
    {
      "children": [
        1
      ],
      "matrix": [
        1.0,
        0.0,
        0.0,
        0.0,
        0.0,
        2.220446049250313e-16,
        -1.0,
        0.0,
        0.0,
        1.0,
        2.220446049250313e-16,
        0.0,
        0.0,
        0.0,
        0.0,
        1.0
      ],
      "name": "Sketchfab_model"
    },
    {
      "children": [
        2,
        3,
        4,
        5,
        6,
        7
      ],
      "name": "Estrella_Muerte.obj.cleaner"
    },
    {
      "mesh": 0,
      "name": "Object_2"
    },
    {
      "mesh": 1,
      "name": "Object_3"
    },
    {
      "mesh": 2,
      "name": "Object_4"
    },
    {
      "mesh": 3,
      "name": "Object_5"
    },
    {
      "mesh": 4,
      "name": "Object_6"
    },
    {
      "mesh": 5,
      "name": "Object_7"
    }
  ],
  "samplers": [
    {
      "magFilter": 9729,
      "minFilter": 9987,
      "wrapS": 10497,
      "wrapT": 10497
    }
  ],
  "scene": 0,
  "scenes": [
    {
      "name": "Sketchfab_Scene",
      "nodes": [
        0
      ]
    }
  ],
  "textures": [
    {
      "sampler": 0,
      "source": 0
    },
    {
      "sampler": 0,
      "source": 1
    },
    {
      "sampler": 0,
      "source": 2
    },
    {
      "sampler": 0,
      "source": 3
    }
  ]
}
